Coordinates
version=1
nRows=18
nColumns=22
inDegrees=yes

Units are S.I. units (second, meters, Newtons, ...)
If the header above contains a line with 'inDegrees', this indicates whether rotational values are in degrees (yes) or radians (no).

endheader
time	pelvis_tilt	pelvis_list	pelvis_rotation	pelvis_tx	pelvis_ty	pelvis_tz	hip_flexion_r	hip_adduction_r	hip_rotation_r	knee_angle_r	ankle_angle_r	subtalar_angle_r	hip_flexion_l	hip_adduction_l	hip_rotation_l	knee_angle_l	ankle_angle_l	subtalar_angle_l	lumbar_extension	lumbar_bending	lumbar_rotation
      1.33000000	      1.10628814	      2.59880693	    181.96224102	     -1.39040198	      1.02492003	     -0.06088666	      7.19990249	      6.59266464	     -9.61799275	    -13.39735702	      6.68275445	     -4.21172070	     10.82077538	     -3.30209485	     -1.53029288	    -18.62359740	      7.87822790	      1.75119986	    -11.00180426	      3.16001171	      4.28781645
      1.34000000	      1.23201540	      2.55449232	    182.08397212	     -1.38787649	      1.02485103	     -0.06115922	      7.46239082	      6.54193938	     -9.76446128	    -13.33791138	      6.52399818	     -4.19734193	     11.32222882	     -3.30118822	     -1.84275136	    -18.95014112	      7.86860407	      2.38258893	    -11.11053325	      3.17713682	      4.43033022
      1.35000000	      1.32990640	      2.50959876	    182.17176597	     -1.38533807	      1.02484499	     -0.06145945	      7.67882765	      6.49798601	     -9.86764118	    -13.24706412	      6.34862941	     -4.19204335	     11.78650097	     -3.32542076	     -2.33300784	    -19.27953745	      7.95214326	      3.16281967	    -11.24981094	      3.19089670	      4.60302329
      1.36000000	      1.40064191	      2.46186502	    182.22734200	     -1.38281115	      1.02490357	     -0.06179814	      7.84749617	      6.45969310	     -9.94231213	    -13.12282329	      6.16341870	     -4.19557497	     12.20640575	     -3.37571050	     -3.00392117	    -19.60689028	      8.13431623	      4.10290001	    -11.41021081	      3.19261459	      4.80987610
      1.37000000	      1.43647964	      2.39784544	    182.26338567	     -1.38026969	      1.02504206	     -0.06213825	      7.97710285	      6.40482934	    -10.03344891	    -12.99581661	      5.96341497	     -4.20755433	     12.57129452	     -3.43429536	     -3.82756298	    -19.93441019	      8.39253928	      5.23617642	    -11.60450449	      3.17205881	      5.02314916
      1.38000000	      1.44104507	      2.34772193	    182.24635461	     -1.37778381	      1.02525103	     -0.06254717	      8.03914703	      6.38176506	    -10.03965610	    -12.80940208	      5.73806610	     -4.21992858	     12.87431980	     -3.54736051	     -4.85477317	    -20.26947998	      8.78303222	      6.33134386	    -11.81131323	      3.15587632	      5.28167704
      1.39000000	      1.41735225	      2.29980544	    182.19687347	     -1.37536070	      1.02552443	     -0.06298552	      8.04451388	      6.36957164	    -10.02616143	    -12.57976009	      5.50569177	     -4.23233980	     13.10739642	     -3.69302341	     -6.02483291	    -20.60221047	      9.26335577	      7.36578486	    -12.02279746	      3.13337048	      5.56186260
      1.40000000	      1.36578824	      2.25275926	    182.11461935	     -1.37297027	      1.02585633	     -0.06345366	      8.00338180	      6.36686407	     -9.96904116	    -12.32355264	      5.25396012	     -4.23982520	     13.27510715	     -3.86656967	     -7.30429287	    -20.95272916	      9.80695869	      8.22343958	    -12.24091719	      3.10132475	      5.85230036
      1.41000000	      1.29571102	      2.20425653	    182.00414366	     -1.37061020	      1.02623077	     -0.06393280	      7.92806856	      6.36725204	     -9.88304910	    -12.04427003	      4.98626325	     -4.23979537	     13.38167448	     -4.05813108	     -8.64326949	    -21.32304073	     10.38182613	      8.83946187	    -12.45292589	      3.05927206	      6.14384317
      1.42000000	      1.22876292	      2.17342422	    181.88001641	     -1.36827406	      1.02659194	     -0.06440124	      7.83893170	      6.38984498	     -9.76745185	    -11.73337190	      4.72036435	     -4.22950157	     13.45954505	     -4.28032899	     -9.98264248	    -21.73567159	     10.98012661	      9.09219569	    -12.62898305	      3.03325676	      6.41690317
      1.43000000	      1.13135706	      2.11889111	    181.73908793	     -1.36594717	      1.02700863	     -0.06485653	      7.72223091	      6.38441359	     -9.66723888	    -11.43539016	      4.44216987	     -4.22009224	     13.45775889	     -4.48464377	    -11.29563057	    -22.17500882	     11.53843864	      9.25993123	    -12.81465301	      2.97178602	      6.68538771
      1.44000000	      1.05542570	      2.09228445	    181.60139374	     -1.36361633	      1.02736105	     -0.06528808	      7.62154174	      6.40833342	     -9.55401279	    -11.12167128	      4.17201301	     -4.20475513	     13.45667264	     -4.71937196	    -12.51169183	    -22.68119498	     12.07488875	      9.14336979	    -12.94547881	      2.93934631	      6.92122351
      1.45000000	      0.97128111	      2.06499920	    181.45666788	     -1.36128012	      1.02770244	     -0.06568806	      7.51260854	      6.42989234	     -9.42552534	    -10.80834931	      3.89752776	     -4.19115216	     13.41473243	     -4.95115662	    -13.61939118	    -23.24836829	     12.54568016	      8.87146538	    -13.06089568	      2.90459669	      7.13504655
      1.46000000	      0.86522230	      2.03218259	    181.31828309	     -1.35891122	      1.02804469	     -0.06604398	      7.39896943	      6.43975447	     -9.30239380	    -10.52973756	      3.61629750	     -4.18163739	     13.32184123	     -5.16608395	    -14.57052686	    -23.87756860	     12.93260262	      8.38058946	    -13.18306475	      2.86167650	      7.31295248
      1.47000000	      0.79013253	      2.03709155	    181.20178996	     -1.35650764	      1.02827780	     -0.06634967	      7.31622613	      6.48688112	     -9.18571440	    -10.23868692	      3.35787046	     -4.17059521	     13.26226601	     -5.40885907	    -15.32045062	    -24.61217373	     13.27707042	      7.94895752	    -13.24793725	      2.86650141	      7.44790482
      1.48000000	      0.69361704	      2.02738686	    181.10017870	     -1.35406037	      1.02849949	     -0.06657661	      7.24659805	      6.50566866	     -9.11722366	    -10.01410532	      3.10940018	     -4.16636549	     13.15590549	     -5.61049016	    -15.86741730	    -25.40549782	     13.52675208	      7.30533005	    -13.32345368	      2.85599032	      7.54752310
      1.49000000	      0.61421267	      2.04583422	    181.02018879	     -1.35154319	      1.02862734	     -0.06673831	      7.21312752	      6.54855575	     -9.04396931	     -9.81371039	      2.87665640	     -4.16121639	     13.07576785	     -5.81922819	    -16.18484843	    -26.30708848	     13.73363459	      6.81571396	    -13.36799687	      2.88356150	      7.60052167
      1.50000000	      0.53309973	      2.08358882	    180.95619420	     -1.34897445	      1.02869678	     -0.06684202	      7.19799486	      6.60514640	     -8.99152973	     -9.64383518	      2.66368268	     -4.15216938	     12.99542892	     -6.02503359	    -16.29419876	    -27.30418066	     13.89362178	      6.56419428	    -13.40216398	      2.93411555	      7.63421654
